<?xml version="1.0" encoding="utf-8"?>
<!-- Generator: Adobe Illustrator 25.4.1, SVG Export Plug-In . SVG Version: 6.00 Build 0)  -->
<svg version="1.1" id="Layer_1" xmlns="http://www.w3.org/2000/svg" xmlns:xlink="http://www.w3.org/1999/xlink" x="0px" y="0px"
	 viewBox="0 0 719.37 246.37" style="enable-background:new 0 0 719.37 246.37;" xml:space="preserve">
<style type="text/css">
	.st0{fill:#282829;}
	.st1{fill:#E7544F;}
	.st2{fill:none;}
	.st3{fill:#010101;}
</style>
<g>
	<g>
		<g>
			<path class="st0" d="M290.47,87.5h40.09c22.24,0,32.15,16.01,32.15,32.01c0,16.29-9.92,31.87-32.15,31.87h-19.26v33.71h-20.82
				V87.5z M311.29,105.78v27.48h18.27c8.07,0,12.32-7.51,12.32-13.74c0-6.09-3.82-13.74-11.76-13.74H311.29z"/>
			<path class="st0" d="M443.45,173.06c-6.8,9.92-18.84,13.46-30.17,13.46c-18.84,0-34.56-13.88-34.56-34.7
				c0-20.96,15.72-34.28,34.56-34.28c18.84,0,33.85,14.02,33.85,34.84c0,1.7-0.14,4.39-0.28,6.09h-48.44
				c1.13,7.65,9.21,11.05,16.29,11.05c5.52,0,11.19-1.84,14.45-6.23L443.45,173.06z M427.3,146.15
				c-1.13-8.07-8.22-11.33-13.88-11.33c-5.38,0-13.17,2.83-14.73,11.33H427.3z"/>
			<path class="st0" d="M509.74,118.95v15.58h-13.88v50.57h-19.55v-50.57h-12.04v-15.58h12.04V93.6h19.55v25.35H509.74z"/>
			<path class="st0" d="M719.37,185.1h-18.56l-33.99-59.07v59.07h-20.68V87.5h18.98l33.43,58.36V87.5h20.82V185.1z"/>
		</g>
	</g>
	<g>
		<g>
			<g>
				<path class="st0" d="M594.89,90.96v22.43c8.54,5.15,14.18,14.65,14.18,25.5c0,16.29-12.75,29.48-28.89,29.48
					c-16.29,0-28.77-13.19-28.77-29.48c0-11.05,5.73-20.73,14.53-25.82V90.84c-20.53,6.14-35.21,25.38-35.21,48.04
					c0,27.49,21.81,50,49.45,50c27.75,0,49.56-22.52,49.56-50C629.74,116.37,615.27,97.28,594.89,90.96z"/>
			</g>
		</g>
	</g>
	<g>
		<rect x="570.05" y="74.58" class="st0" width="20.16" height="44.3"/>
	</g>
</g>
<path class="st1" d="M165.43,0.22c15.32,0,27.73,23.3,27.73,43.04C193.16,63,180.75,79,165.43,79c-15.32,0-27.73-16-27.73-35.74
	C137.7,23.52,150.12,0.22,165.43,0.22z"/>
<path class="st1" d="M86.64,0.22c15.32,0,27.73,23.3,27.73,43.04C114.37,63,101.95,79,86.64,79c-15.32,0-27.73-16-27.73-35.74
	C58.91,23.52,71.32,0.22,86.64,0.22z"/>
<path class="st1" d="M3.59,104.33c-6.5-16.28-3.66-39.71,9.33-44.89c12.98-5.19,31.19,9.83,37.69,26.11
	c6.5,16.28,1.25,33.69-11.73,38.87C25.89,129.61,10.09,120.61,3.59,104.33z"/>
<path class="st1" d="M248.48,104.33c-6.5,16.28-22.3,25.28-35.29,20.09c-12.98-5.19-18.24-22.59-11.73-38.87
	c6.5-16.28,24.71-31.3,37.69-26.11C252.14,64.62,254.98,88.05,248.48,104.33z"/>
<path class="st2" d="M158.31,234.24c1.91-0.16,2.56-0.5,2.64-1.69c-2.24-0.18-4.39,0.15-6.49,0.82l0.07,0.58
	C155.7,234.12,157.17,234.33,158.31,234.24z"/>
<path class="st2" d="M93.75,234.24c1.15,0.09,2.62-0.12,3.78-0.3l0.07-0.58c-2.09-0.67-4.25-1-6.49-0.82
	C91.2,233.73,91.84,234.08,93.75,234.24z"/>
<path class="st1" d="M225.25,194.28c-2.97-13.34-10.06-25.36-17.91-36.51c-18.37-26.11-47.8-52.48-81.3-52.48
	c-33.36,0-62.93,26.36-81.3,52.48c-7.84,11.15-14.93,23.17-17.91,36.51c-2.97,13.34-1.35,28.25,6.91,39.08
	c8.26,10.83,23.91,16.24,36.15,10.38c4.76-2.28,4.97-6.37,9.53-8.91c-1.73-0.28,0.93-0.31,0.16-0.66c2.48-1.42,6.56-1.41,9.73-1.61
	c0.13-5.18,2.72-6.57,7.8-7.09c-2.74-6.26-7.59-16.75,5.14-15.36l-0.1-1.47c-1.71-2.35-1.11-5.19-0.84-8
	c0.09-0.94,0.51-1.72,2.28-4.69l-4.54-6.06c-0.95-1.2-1.69-0.86-2.37-1.07c-0.68-0.21-1.3-0.98-1.99-4.43
	c-0.82-4.11,0.55-5.1,0.31-5.35c-0.13-0.13-1.35,1.05-2.24-0.43l2.18-5.99c-7.29,1.17-11.4-1-12.02-8.25
	c1.62-2.48,7.11-7.79,6.97-10.82c-0.03-0.64-0.58-0.66-0.68-1.66l0.35-2.2l2.25-3.04l-0.89-1.09c4.49-6.64,8.52-8.22,16.51-6.79
	c0.53,0.1,1.08,0.2,1.64,0.3c2.59-3.41,4.33-6.32,10.33-6.11c-0.54-1.05-1.64-1.42-4.32-2.62c3.61-3.52,12.31,0.55,15.65,2.9
	c1.97-2.92,0.79-4.68,4.44-5.4l0.26,5.79c2.24,0.28,3.43-1.02,6.16-0.56c-0.23,2.53-1.14,1.12-2.14,4.05l2.35,2.47
	c4.63-1.29,8.65-2.39,13.44,0.14c1.73,0.91,3.28,2.1,4.18,3.28l1.72,2.54l-0.89,1.09l2.25,3.04l0.35,2.2
	c-0.18,1.71-1.66,0.53,0.38,4.55c2.21,4.34,4.04,5.07,5.9,7.93c-0.63,7.24-4.74,9.42-12.02,8.25l2.18,5.99
	c-0.89,1.48-2.11,0.29-2.24,0.43c-0.24,0.25,1.13,1.24,0.31,5.35c-0.69,3.45-1.3,4.22-1.99,4.43c-0.68,0.21-1.42-0.12-2.37,1.07
	l-4.54,6.06c1.77,2.97,2.19,3.74,2.28,4.69c0.27,2.81,0.88,5.65-0.84,8l-0.1,1.47c12.73-1.39,7.88,9.1,5.14,15.36
	c5.08,0.52,7.66,1.91,7.8,7.09c3.17,0.2,7.25,0.19,9.73,1.61c-0.76,0.36,4.94,7.29,9.7,9.57c12.24,5.86,27.89,0.46,36.15-10.38
	C226.59,222.53,228.22,207.62,225.25,194.28z"/>
<path class="st3" d="M117.07,181.63c3.34,0.27,7.39-1.04,8.96-5.07c1.57,4.03,5.63,5.35,8.96,5.07c4.81-0.4,8.48-3.42,5.95-7.7
	c-0.15,2.7-0.72,5.69-6.01,5.97c-6.14,0.32-7.01-3.83-8.01-7.66c8.07-1.39,8.92-7.66-0.88-7.41c-9.8-0.25-8.96,6.02-0.88,7.41
	c-1,3.83-1.87,7.99-8.01,7.66c-5.29-0.28-5.86-3.27-6.01-5.97C108.6,178.21,112.27,181.23,117.07,181.63z"/>
<path class="st3" d="M97.54,233.94c-1.16,0.19-2.63,0.4-3.78,0.3c-1.91-0.16-2.56-0.5-2.64-1.69c-0.01,0-0.03,0-0.04,0
	c-2.77,0.23-5.29,1.23-7.7,2.57c4.54,0.72,12.08,1.18,20.93,1.43c-2.17-1.31-4.4-2.45-6.7-3.18L97.54,233.94z"/>
<path class="st3" d="M160.95,232.55c-0.08,1.19-0.73,1.54-2.64,1.69c-1.15,0.09-2.62-0.12-3.78-0.3l-0.07-0.58
	c-2.31,0.73-4.54,1.87-6.7,3.18c8.85-0.24,16.39-0.7,20.93-1.43c-2.41-1.34-4.93-2.33-7.7-2.57
	C160.98,232.55,160.96,232.55,160.95,232.55z"/>
<path class="st3" d="M162.76,232.56c-0.13-5.18-2.72-6.57-7.8-7.09c2.74-6.26,7.59-16.75-5.14-15.36l0.1-1.47
	c1.71-2.35,1.11-5.19,0.84-8c-0.09-0.94-0.51-1.72-2.28-4.69l4.54-6.06c0.95-1.2,1.69-0.86,2.37-1.07c0.68-0.21,1.3-0.98,1.99-4.43
	c0.82-4.11-0.55-5.1-0.31-5.35c0.13-0.13,1.35,1.05,2.24-0.43l-2.18-5.99c7.29,1.17,11.4-1,12.02-8.25c-1.87-2.86-3.7-3.59-5.9-7.93
	c-2.04-4.02-0.56-2.84-0.38-4.55l-0.35-2.2l-2.25-3.04l0.89-1.09l-1.72-2.54c-0.89-1.17-2.45-2.37-4.18-3.28
	c-4.79-2.53-8.81-1.43-13.44-0.14l-2.35-2.47c1.01-2.93,1.91-1.53,2.14-4.05c-2.73-0.45-3.92,0.85-6.16,0.56l-0.26-5.79
	c-3.66,0.71-2.47,2.47-4.44,5.4c-3.34-2.35-12.04-6.43-15.65-2.9c2.67,1.21,3.78,1.58,4.32,2.62c-6.01-0.21-7.75,2.7-10.33,6.11
	c-0.57-0.1-1.11-0.21-1.64-0.3c-7.99-1.43-12.02,0.15-16.51,6.79l0.89,1.09l-2.25,3.04l-0.35,2.2c0.1,1,0.65,1.01,0.68,1.66
	c0.14,3.03-5.35,8.35-6.97,10.82c0.63,7.24,4.74,9.42,12.02,8.25l-2.18,5.99c0.89,1.48,2.11,0.29,2.24,0.43
	c0.24,0.25-1.13,1.24-0.31,5.35c0.69,3.45,1.3,4.22,1.99,4.43c0.68,0.21,1.42-0.12,2.37,1.07l4.54,6.06
	c-1.77,2.97-2.19,3.74-2.28,4.69c-0.27,2.81-0.88,5.65,0.84,8l0.1,1.47c-12.73-1.39-7.88,9.1-5.14,15.36
	c-5.08,0.52-7.66,1.91-7.8,7.09c-3.17,0.2-7.25,0.19-9.73,1.61c0.76,0.36,2.06,0.67,3.8,0.95c2.41-1.34,4.93-2.33,7.7-2.57
	c0.01,0,0.03,0,0.04,0c-0.03-0.43,0.01-0.96,0.1-1.63c0.42-3.27,4.46-3.7,7.12-3.68l-0.74,6.13c2.31,0.73,4.54,1.87,6.7,3.18
	c6.73,0.19,14.22,0.25,21.73,0.2c7.5,0.04,14.99-0.02,21.73-0.2c2.17-1.31,4.4-2.45,6.7-3.18l-0.74-6.13
	c2.67-0.03,6.7,0.41,7.12,3.68c0.09,0.67,0.13,1.21,0.1,1.63c0.01,0,0.03,0,0.04,0c2.77,0.23,5.29,1.23,7.7,2.57
	c1.73-0.28,3.03-0.59,3.8-0.95C170,232.75,165.92,232.75,162.76,232.56z M99.94,187.07c-0.48-1.26-0.82-1.82-1.09-2
	c-0.91-0.59-0.91,3.38-2.51-1.07c-0.92-2.58,0.42-4.79,1.22-6.63c-1.72-2.45,0.18-0.09-1.93-1.24c1.75-4.49,6.22-8.44,11.98-9.43
	c-2.36-0.73-5.1,0.1-6.08,0.82c-0.15-2.91-0.36-9.91,3.14-14.03c-3.98,1.18-4.7,8.39-4.96,13.97c-2.51,2.32-3.08,2.57-6.62,3.62
	c-5.16,0.87-7.63-1.63-8.3-6.1c2.61-3.65,6.62-7.11,7.32-12.05c0.27-1.93-0.59-2.47-0.25-3.43c0.35-0.98,4.47-4.1,4.38-4.45
	c-0.32-1.29-1.83-1.18-1.88-1.37c-0.03-0.13,0.37-0.43,1.73-1.49c0.54-0.43,3.05-1.59,3.88-1.82c2.53-0.7,5.54-0.6,7.85,0.24
	c2.76,1.01,2.39,1.51,5.42-0.31c0.42-0.25,1.02-0.52,2.15-0.78c-1.48,2.68-5.27,5.67-4.7,10.1l0.67,0
	c2.51-0.53,3.14-2.88,10.08-4.88c0.15,2.97,0.31,2.96,0.73,3.96c1.77-1.72,5.82-5.12,9.31-5.52c-0.91-0.79-6.76,1.31-8.2,2.8
	c0.32-1.07,0.55-1.8,0.25-3.25c-4.2,0.44-7.73,2.55-10.59,4.08c0.93-5.33,4.22-3.83,5.11-8.18l-5.6-1.18
	c2.37-2.52,5.31-3.49,11.09-2.11c0.17-0.47-1.07-2.99-3.04-4.28c5.56,1.25,7.68,2.63,11.68,5.34c0.15-2.28,0.66-3.63,1.45-4.73
	c-0.12,1.5,0.1,2.92,0.57,4.59l3.86-1.01c-0.68,2.84-1.02,2.01,0.56,3.84c0.85,0.83,1.78,1.83,2.64,2.61
	c1.65-0.57,3.46-1.15,5.29-1.47c1.3-0.23,2.62-0.33,3.92-0.2c0.55,0.08,1.1,0.19,1.62,0.33c0.83,0.23,3.34,1.4,3.88,1.82
	c1.36,1.06,1.76,1.36,1.73,1.49c-0.04,0.19-1.56,0.08-1.88,1.37c-0.09,0.35,4.03,3.47,4.38,4.45c0.59,1.66-2.43,2.06,3.1,10.64
	c1.38,2.14,2.68,3.04,3.97,4.85c-0.67,4.47-3.15,6.97-8.3,6.1c-3.54-1.05-4.11-1.3-6.62-3.62c-0.26-5.59-0.98-12.79-4.96-13.97
	c2.67,3.38,3.28,11.12,3.14,14.03c-0.98-0.72-3.72-1.55-6.08-0.82c5.76,1,10.23,4.94,11.98,9.43c-2.11,1.15-0.2-1.21-1.93,1.24
	c0.81,1.85,2.15,4.06,1.22,6.63c-1.6,4.45-1.6,0.47-2.51,1.07c-0.27,0.17-0.61,0.73-1.09,2c-0.38,1.01-2.52,7.36-5.9,8.11
	c-0.26,0.06,0.29-2.33-0.01-2.53c-3.25,3.23-8.13,4.8-13.78,5.98l3.21,0.45c-1.56,2.48-5.64,3.94-9.62,3.94
	c-3.98-0.01-8.06-1.47-9.62-3.94l3.21-0.45c-5.65-1.17-10.53-2.75-13.78-5.98c-0.3,0.2,0.25,2.59-0.01,2.53
	C102.45,194.43,100.32,188.08,99.94,187.07z M141,197.82c-1.88,5.68-8.46,8.45-14.97,8.38c-6.51,0.07-13.08-2.7-14.97-8.38
	c4.42,0.89,2.4,2.25,6.4,4.58c2.45,1.43,5.52,2.13,8.56,2.09c3.05,0.04,6.11-0.66,8.56-2.09C138.6,200.07,136.58,198.72,141,197.82z
	 M99.16,225.59c-1.27-2.18-2.45-4.44-3.27-7.3c-0.3-1.05-0.47-2.09-0.42-3.01c0.16-2.8,4.05-4.59,6.42-3.48
	c2.3,1.08,2.92,7.56,2.78,10.15C103.26,223.07,99.37,226.47,99.16,225.59z M152.75,231.84c-0.21,2.37-0.65,2.03-4.05,2.35
	c-5.45,0.51-15.02,0.11-15.49,0c-2.49-0.58-2.82-2.27-2.14-4.08c1.31-3.49,3.69-6.04,7.4-7.27c-4.35,0.6-6.02,2.34-7.84,4.28
	l1.14-7.79c0.15-1,0.9-1,0.97-0.02c0.03,0.37,0.12,0.74,0.78,0.59c2.02-1.69,3.43-4.24,2.97-7.42c-0.86,3.16-1.92,4.64-3.17,5.8
	c-0.17-1.06-0.35-2.12-0.52-3.18c-0.27,0.55-2.21,5.33-2.92,4.88c-0.4-0.25-0.79-1.34-1.03-1.15c-0.25,1.62-0.19,2.75,0.28,2.95
	c0.51,0.21,1.44-0.57,1.44-0.45c-1.29,4.44-1.5,7.12-1.93,11.72l-2.61-0.03l-2.61,0.03c-0.44-4.6-0.64-7.28-1.93-11.72
	c0-0.11,0.93,0.67,1.44,0.45c0.47-0.2,0.53-1.33,0.28-2.95c-0.24-0.19-0.63,0.89-1.03,1.15c-0.71,0.45-2.64-4.33-2.92-4.88
	c-0.17,1.06-0.35,2.12-0.52,3.18c-1.25-1.16-2.31-2.63-3.17-5.8c-0.46,3.18,0.96,5.73,2.97,7.42c0.66,0.16,0.75-0.21,0.78-0.59
	c0.07-0.98,0.83-0.98,0.97,0.02l1.14,7.79c-1.82-1.95-3.5-3.68-7.84-4.28c3.72,1.23,6.1,3.78,7.4,7.27c0.68,1.81,0.36,3.5-2.14,4.08
	c-0.47,0.11-10.04,0.52-15.49,0c-3.4-0.32-3.85,0.02-4.05-2.35c-0.48-5.5,6.23-8.22,7.01-8.83c0.56-5.46-3.03-11.48-2.38-18.09
	c0.04-0.4-1.22-0.2-1.21-0.62c0.01-0.47,1.4-2.71,1.44-3.17c0.03-0.33-1.39-0.3-1.34-0.62c0.22-1.41,1.87-2.68,2.75-3.92
	c0.71,0.76,1.7,1.23,2.84,1.31c-0.47-0.41-0.84-1.27-0.46-2.07c0.05-0.16,1.01,0.49,1.07,0.83l-0.22,1.89l0.98,1.57
	c1.54,2.47,6.48,6.09,10.26,7.13c1.74,0.48,3.86,0.72,5.98,0.71c2.12,0.01,4.24-0.23,5.98-0.71c3.78-1.04,8.72-4.65,10.26-7.13
	l0.98-1.57l-0.22-1.89c0.06-0.34,1.03-0.99,1.07-0.83c0.38,0.8,0.01,1.66-0.46,2.07c1.14-0.07,2.13-0.55,2.84-1.31
	c0.89,1.24,2.54,2.51,2.75,3.92c0.05,0.32-1.37,0.29-1.34,0.62c0.04,0.46,1.43,2.71,1.44,3.17c0.01,0.41-1.25,0.21-1.21,0.62
	c0.65,6.61-2.94,12.62-2.38,18.09C146.52,223.62,153.23,226.33,152.75,231.84z M152.91,225.59c-0.21,0.88-4.1-2.52-5.51-3.64
	c-0.13-2.59,0.48-9.07,2.78-10.15c2.37-1.11,6.26,0.68,6.42,3.48c0.05,0.92-0.12,1.96-0.42,3.01
	C155.36,221.15,154.18,223.4,152.91,225.59z"/>
<path class="st3" d="M118.27,161.71c1.07,0.16,2.13-0.97,2.37-2.54c0.24-1.57-0.43-2.97-1.5-3.13c-1.07-0.16-2.13,0.97-2.37,2.54
	C116.53,160.15,117.2,161.55,118.27,161.71z"/>
<path class="st3" d="M133.8,161.71c1.07-0.16,1.74-1.57,1.5-3.13c-0.24-1.57-1.3-2.7-2.37-2.54c-1.07,0.16-1.74,1.57-1.5,3.13
	S132.73,161.88,133.8,161.71z"/>
<path class="st1" d="M134.6,202.41c-2.45,1.43-5.52,2.13-8.56,2.09c-3.05,0.04-6.11-0.66-8.56-2.09c-4-2.34-1.98-3.69-6.4-4.58
	c1.88,5.68,8.46,8.45,14.97,8.38c6.51,0.07,13.08-2.7,14.97-8.38C136.58,198.72,138.6,200.07,134.6,202.41z"/>
</svg>
